<svg height="78" viewBox="0 0 158 78" width="158" xmlns="http://www.w3.org/2000/svg"><g fill="none" fill-rule="evenodd" transform="translate(-1)"><path d="m1 78h158v-78h-158z" fill="#d8232a"/><g fill="#fff"><path d="m145.840781 59.8274124v-29.7113372h-65.6815617v35.7046886h65.6815617v-6.1849166h1.159219v7.3641528h-68v-38h68v30.8274124z"/><path d="m73 33.2545016h12.0637557c1.5565907 0 3.8562774.4730409 5.2535825 1.84237 1.0382012 1.0159316 1.6220116 1.7151193 2.0756913 2.7946762.4543907 1.0802485 4.8070137 10.7367849 4.8070137 10.7367849.2595503.5083116.4536797.3810608.6485202 0 .1948405-.3810607 5.1817616-13.0231495 5.1817616-13.0231495.519101-1.0802485 2.010271-2.6051832 3.372732-2.6051832 1.36175 0 2.95034.6238055 3.891832 3.1128032.32426.8582512 4.994032 12.9602157 4.994032 12.9602157.259551.6348707.583811.6348707.843361-.0636254.25955-.6984962 4.799192-12.5784634 4.799192-12.5784634.649231-1.5249347 2.46395-2.8956469 4.086672-2.8589932 1.394461.0318127 3.956543.7621216 5.124163 3.493864 1.073756 2.5138945 7.588113 18.4237005 7.588113 18.4237005.713941 1.5878684 1.751432 2.5408662 4.151383 2.5408662h10.118195v1.2704331h-15.307068c-2.464661 0-3.920987-.0822981-5.577842-1.1431823-1.686722-1.0802486-2.724212-1.7787447-3.372732-3.6211148l-4.735193-12.4519041s-.194129-.6984962-.64852-.6984962c-.45368 0-.519101.1901846-.64852.571937-.12942.3810607-5.188873 13.5314611-5.707974 14.8018942-.518389 1.2704331-1.154821 3.2455865-2.940385 3.2400539-2.335241-.0076074-3.538417-1.0166231-4.122227-2.5415578-.583811-1.5242431-5.138385-13.2140257-5.332514-13.7216457-.194841-.5083115-.843361-1.0166231-1.167621-.1272508-.32426.8893724-5.1170522 13.4042104-5.5060221 14.3572081s-1.4918809 2.0332462-2.919052 2.0332462c-1.4264599 0-2.1908889-.5719369-2.7746993-1.9696208s-7.3434957-18.4230089-7.9273061-20.011569c-.5838104-1.5878685-1.6405001-2.5975758-2.3345305-2.9537397-.6812307-.3499396-1.3624613-.6037496-3.2433121-.6037496s-4.7344819 0-4.7344819 0z"/><path d="m78.8407807 59.8274124v-29.7113372h-65.6815614v35.7046886h65.6815614v-6.1849166h1.1592193v7.3641528h-68v-38h68v30.8274124z"/><path d="m7 33.2545017h13.4751497c1.5470238 0 3.8325766.4730411 5.2212937 1.8423708 1.0318204 1.015932 1.6120426 1.71512 2.062934 2.7946774.4515981 1.080249 4.0975989 12.0680823 4.0975989 12.0680823.2572483.5076202.8586724.3810609 1.0523154 0 .193643-.3817525 5.829785-14.3544479 5.829785-14.3544479.5159101-1.080249 1.5901341-2.6051843 2.9442216-2.6051843 1.3533808 0 2.9322073.6238057 3.8679129 3.1128045.3222671.8582516 4.9633385 12.9602213 4.9633385 12.9602213.4798672 1.2151072.8883549 1.1487154 1.3823566-.0636254.2812771-.6901975 4.9060938-12.5784688 4.9060938-12.5784688.6445343-1.5249353 2.3124083-2.8956482 3.9251576-2.8589944 1.3858903.0318127 3.3880458.7621219 4.5484903 3.4938654 1.0678634 2.5138957 7.541476 18.4237084 7.541476 18.4237084.7095532 1.5878692 1.7406668 2.5408673 4.1258679 2.5408673h10.0560081v1.2704337h-15.2129896c-2.4495133 0-3.8968887-.0822981-5.5435609-1.1431828-1.6763547-1.080249-2.7074683-1.7787455-3.3520027-3.6211163l-4.7060902-12.4519095s-.1929362-.6984965-.6445343-.6984965c-.4508914 0-.5152035.1901847-.6445344.5719372-.1286242.3810609-5.1569816 13.5314669-5.672185 14.8019006-.5159102 1.2704336-1.4183996 3.2400553-3.7392887 3.2400553-2.320889 0-2.8360925-1.0166235-3.4163148-2.5415589-.5802222-1.5242437-4.9704058-13.2140314-5.1640488-13.7216516-.193643-.5083117-1.110267-1.0166235-1.4325341-.1272508-.3222672.8893727-5.0856023 13.4042161-5.4721815 14.3572142-.3865793.9529981-1.2106221 2.0332471-2.6290217 2.0332471-1.4176929 0-2.4495133-.5719372-3.0297355-1.9696217-.5795156-1.3976845-7.0262726-18.4230168-7.6064949-20.0115776-.5795155-1.5878691-1.6304175-2.5975769-2.3201823-2.9537409-.6770438-.3499398-1.3540875-.6037499-3.2233785-.6037499s-6.1909221 0-6.1909221 0z"/><path d="m98.1687875 21.4644832c-.7273962-.1426582-1.1160239-.1507056-1.1160239-1.3205025 0-2.1727936-.005464-8.7314113-.005464-8.7314113 0-.6986593-.2335864-.4660167-2.840602.3672533-.2711515.0870581-.2684195.4704062-.033467.5289326 1.0859719.2692215 1.1973011.2692215 1.2000331.6481802.008196 1.4039026-.002732 5.6953529-.0040981 7.5630775-.000683.84717-.3893106.7140224-1.194569.9949492-.1864594.0651107-.2206094.4850378.0594211.4850378h3.9818969l.7840854-.031458-.4118497-.4704061z"/><path d="m61.0505364 11.5916907c0-.6897508-.1970006-.5584384-2.8495443.296535-.2633308.0844151-.2613409.4668083-.0325018.5209206.98036.2330433 1.1176635.1673872 1.1203167.5411224.0079596 1.357135.0092862 6.0620141-.0192358 7.5576764-.0159192.8347715-.378082.7041807-1.1601148.9812353-.180418.0642132-.1233741.5108196.1485796.5108196 1.7199415-.0331888 3.1387439-.0656562 4.9203724-.0303029.1684787.0036075.2712905-.297978.1280173-.3939371-.8238208-.5490589-2.3407919-.1010095-2.3407919-1.4393856 0-2.1421233.0039798-3.8499056.0179091-4.5519218.0212257-1.037512.413237-1.6291392 1.5421766-2.7835337.5041093-.5158701 1.3345631.4696942 1.7093286.3145725.4424223-.1839816 1.0393939-1.0216391.6254936-1.5194718-1.2761926-1.5360661-2.3467616.225107-3.6275973 1.589457-.0789329.0836936-.1837346-.1839817-.1810814-.2821052.0132661-.5238065-.0013266-.6984087-.0013266-1.3116807"/><path d="m102.268359 12.7895994c-.004349-.5260396-.00145-.7013861-.00145-1.3172727 0-.6926913-.281203-.4615527-3.0475767.3637354-.287726.0854995-.284827.4651755-.0355127.5231413 1.1523534.2666426 1.2871574.2666426 1.2900564.6419712.009422 1.3904545.010871 5.9610576-.021018 7.4913547-.017394.8390549-.413108.7064581-1.2675889.9854185-.197857.064487-.200756.5129973.0956671.5129973 1.8800038-.0826012 2.2097648-.0659361 4.1564458-.030432.184087.0036228.296423-.2992484.139877-.3956166-.900141-.5513996-1.33789-.1014401-1.33789-1.445522 0-2.1512557.005073-3.8663187.020293-4.5720523.024641-1.1310576.24569-2.074451 1.684321-2.794676.976964-.4890864 1.689394-.5427048 2.461253-.0608641.659523.4122818.659523 1.0557021.659523 1.7150631v6.0668452c0 .3296805-.164518.6593609-.725475.8245635-.560957.1652025-.791428.2637443-.791428.3956165s.131905.2637444.362375.2970747c.231196.0326058 1.088576-.0333303 1.715485-.0333303.626185 0 1.880004.0333303 2.077861.0333303s.296423-.0659361.296423-.2637443c0-.1978083-.296423-.3296805-.659523-.494883-.3631-.1652026-.62691-.2970748-.62691-.7912332v-6.3313142c0-1.1535193-.263809-2.0773492-1.121189-2.6374437-.85738-.5608191-1.48429-.5941494-2.390953-.2478038-.56603.2159226-1.998138 1.1759811-2.490243 1.5331953-.181188.1325968-.441374.310117-.442823.0318812"/><path d="m67.8933739 12.0635699c1.3951748-.5277833 3.8264506.5250308 3.8330593 2.1840732.0036715.9096864-.0014686 4.0708813-.0014686 4.855331 0 1.3487031-2.3776717 2.4414278-3.6678413 1.6108745-1.5567214-1.00327-2.2521059-2.7077279-2.2528402-4.3660822 0-1.6191318.2783007-3.5988352 2.0890908-4.2841965zm5.6027285-6.70842157c0-.6578368-.5345723-.31309178-3.0877423.3137799-.293721.07225195-.3561367.44520963-.1028023.49681817 1.0852991.22226076 1.398112.1596424 1.4069237.51608536.007343.26974061-.0007343 4.50989794-.0007343 4.76037134 0 .3791507-.2973926.338552-.37376.3124037-1.812993-.6158619-3.761832-.7321531-5.3596744.5594365-2.4371502 1.9700698-2.4819426 5.3039812-.9009892 7.7350873.834902 1.2840204 2.3248019 2.2845379 3.9520163 1.8462094.820216-.2208846 1.5875622-.5855849 2.3490339-1.0541904.3517309-.2160677.3576053.2800623.356871.6874257 0 .6578368.4523304.4225019 3.0047661-.3296065.2893152-.0853261.356871-.4527789.102068-.4968182-1.1007195-.1912956-1.349648-.1465682-1.351851-.5030112v-14.84399107z"/><path d="m128.997775 16.8360549c-.055015 2.5251427-1.774967 5.0226612-4.489537 5.1558244-1.956663.0963308-4.036386-.6608579-4.850757-2.4592695-.838983-1.8536602-.873005-3.9049402-.11365-5.7741833.89979-2.2156092 3.624495-3.2299162 5.938032-2.5492255 1.055425.3109503 1.937842.8244786 2.542286 1.783537.739087 1.1722612 1.003305 2.4776857.973626 3.8433169zm-2.150664-2.3168982c-.267113-1.8005366-1.856766-3.335455-3.71498-2.5945576-1.160388.4632379-1.704026 1.4832115-1.940013 2.6122655-.47704 2.2814824-.373524 5.2967791 1.625123 6.517914 1.138672.6962736 2.744974.1324549 3.253141-.7501055 1.067731-1.8550768 1.073522-3.7916099.776729-5.7855164z"/><path d="m95 8.00069061c0 .55179558.4475138.99930939 1 .99930939.5517956 0 1-.44751381 1-.99930939 0-.55248619-.4482044-1.00069061-1-1.00069061-.5524862 0-1 .44820442-1 1.00069061"/><path d="m32 7c0 .55179558.4480497 1 .9996548 1 .5522955 0 1.0003452-.44820442 1.0003452-1 0-.55248619-.4480497-1-1.0003452-1-.5516051 0-.9996548.44751381-.9996548 1"/><path d="m56.2250148 16.182289c.0089329 3.0546418-.00962 3.3898902.0309214 3.7237269.1037585.8434143.8946595.5942719 1.6127233.4199427.07215-.0169389.1827799.1305704.1044457.2159705-.5820097.6373248-1.1248522 1.5513177-2.1067787 1.2746496-.8218224-.2314979-.8534309-1.293-1.2217393-1.3106447-.4459554-.0211735-.226757.1785639-1.1702036.8137713-.4260283.2865491-.9860494.5533362-1.5020933.6330901-1.1131708.1729175-2.3953786-.1093969-2.7788041-1.1772511-1.1427178-3.1816833 3.063281-3.9502843 5.0992841-4.7224142.0742114-.019762.2851641-.1933853.2817284-.4135906-.0316086-1.9987859.1875899-2.931835-.5435297-3.3934191-.7716609-.4869923-2.0243216-.4389989-2.4998242.2449077-.3793026.5441611-.3387612 1.6642435-.5579596 1.8533941-.1889642.1630366-1.7542747.5505131-1.7941289.3952402-.06253-.2413788.3222698-2.4822494 2.9347853-3.4110638 1.0183451-.3613624 2.170683-.5462784 3.0996995.0995158 1.239605.8610589 1.0059766 2.9198367 1.0114737 4.7541746zm-1.6072262 2.0566604c0-1.1567833-.0164914-1.3205256-.1539199-1.302881-1.6429575.2103243-2.8839368.7438985-3.5600849 1.9797298-.3689955.6754372.1099428 1.5880185.5943782 1.8392783 1.0197194.5293395 3.1196266-.573804 3.1196266-2.5161271z"/><path d="m39.8378173 21.490612c-.7379444-.1365801-1.1325782-.1442453-1.1325782-1.2584879 0-2.0696065-.0277423-3.6862687-.0131776-4.3649882l.0076291-10.47415968c0-.66547951-.2378899-.44388529-2.8851961.34981227-.2746485.08292362-.2718743.44806631-.0332907.50311644 1.1027552.25713293 1.2317568.25713293 1.2338375.61809459.0090162 1.33723055.0131775 12.03786238.012484 13.66218988-.0006936.8069374-.4279245.7442221-1.2449344 1.0125044l-.5499905-.0480818c-.7379444-.1365801-1.1325782-.1442453-1.1325782-1.2584879 0-2.0696065-.0277423-3.6862687-.012484-4.3649882l.0069355-3.9510668c0-.6661763-.2378899-.4445821-2.8851961.3498123-.2746485.0822268-.2718742.4473694-.0332907.5031164 1.1027552.2564361 1.2317568.2564361 1.2338375.6173978.0090162 1.3372305.0131775 5.5154663.012484 7.1397938-.0006936.8069374-.427231.7442221-1.2449344 1.0125044-.189341.0620185-.2240188.4613062.0596459.4613062h4.0434359.561781 4.0434359c.1484211-.0452944.1720021-.427858-.0478554-.509388"/><path d="m112.893394 12.0637737c1.395181-.5277724 3.825735.5250201 3.832344 2.1840285.004406.9089796-.000734 4.0707977-.000734 4.8552314 0 1.3486754-2.378418 2.4413777-3.66786 1.6108413-1.557464-1.0032493-2.252852-2.7083603-2.252852-4.3659925-.000734-1.6190986.277568-3.5987614 2.089102-4.2841087zm5.602756-6.70897194c0-.6571352-.534575-.31308536-3.088492.31446156-.293722.07225047-.355404.4452005-.102068.49680798 1.085304.2222562 1.398119.15963912 1.40693.51607476.006609.26973508-.000734 4.50980534-.000734 4.76027364 0 .3791429-.298128.3385451-.373762.3123973-1.813002-.6158492-3.762585-.7321381-5.359701.559425-2.437163 1.9700294-2.481955 5.3031843-.900994 7.7349286.834906 1.2839941 2.324814 2.284491 3.951302 1.8461715.82022-.22088 1.588304-.5862609 2.34978-1.0541687.351733-.2167514.357607.2800566.356873.6874116 0 .6578233.451598.4224932 3.004047-.3295998.290051-.0853243.357607-.4527696.102803-.4974961-1.100725-.1906036-1.349655-.1458771-1.351858-.5023127v-14.84437464z"/><path d="m145.695689 12.4199418c1.011021.5270303.980215 1.0078668 1.435314 1.5614936.113425.1378818.371081-.0195974.370381-.1014866-.019604-1.8372572.205845-2.1277188-.333973-2.3334916-1.781189-.6789103-4.1148-1.0274642-5.460494.8132925-1.085238 1.4838039-.557322 3.4001507.990016 4.3723222 1.407308.8839832 3.370538 1.0085667 3.962167 2.7177408.262557.7579998-.381583 1.4488086-1.123746 1.6216857-1.23367.287662-2.296502-.2176712-3.360035-.8440884-.64064-.3765503-.55102-1.4922028-1.019423-1.4992019-.292664-.0048994-.098722.5760239-.016103 2.5147676.010502.2337691.059513.2757636.314368.3450544 1.443016.3947479 3.121983.620818 4.337449.1392816 1.285481-.5095326 2.460339-1.6776782 2.161373-3.1887785-.175038-.8832833-.567124-1.5796913-1.368799-2.0843246-1.561342-.9819702-4.06719-1.1870431-4.244329-3.1131885-.152633-1.6531816 2.134067-1.5572942 3.355834-.9210783"/><path d="m131.038362 11.2258119h-3.710728s-.358648-.0322589-.325466.1619955c.032476.1942543.214624.3078615.422893.4530263.16238.1129059.29299.2742001.455369.7756147.09531.2924334 2.637611 8.5689296 2.702563 8.8277016.064951.258772.162379.4530263.455369.4530263.325465 0 .553502-.0645177.65093-.3885086.098134-.3232897 2.050926-6.7252668 2.116584-6.95178.064951-.2265131.227331-.2265131.357941.1290354.129903.3555485 2.050925 6.7904857 2.148353 6.9847401.097428.1942543.195562.2910308.422893.3232896.228038.0322589.358647-.0645176.456075-.2910308s2.034688-6.5639726 2.79999-9.0542148c.089662-.2931347.365707-.6262422.634693-.7594853.259807-.1297366.374179-.2643822.374179-.3394191 0-.1619954-.098134-.258772-.325465-.258772-.228038 0-2.343915 0-2.343915 0-.195562 0-.504789 0-.488551.1612942.026122.2573695.274633.2580708.423599.3232897.439131.1942543.73212.4046381.830254.6311512.097428.2258119.113666.5007133.015532.9214808-.097428.4200662-1.529899 5.1733361-1.59485 5.3675904-.064952.1942543-.29299.1612942-.390418-.1297366-.098133-.2910309-2.115877-7.0162977-2.181535-7.2428108-.064952-.2265132-.194855-.3232897-.422893-.3232897s-.357941.2258119-.521027.7756147c-.16238.5498028-1.88784 6.2413842-1.985268 6.5324151-.098133.2910308-.423599.5491015-.586684.0967765-.16238-.4530263-1.529899-4.8500464-1.627327-5.1740374-.091074-.3001475-.276751-.8730925-.064952-1.1318645.193444-.2363311.439131-.3071603 1.171958-.4200662.402419-.0624138.878968-.4200662.129904-.4530263"/><path d="m93.5963606 8.31367872-3.415208 12.90402368s-.159201.7165761-.5101355.7165761c-.3516266 0-.5426678-.520825-.5426678-.520825l-2.8407-10.4928228s-.0643726-.1950444-.2235736-.1950444c-.1598932 0-.2554138.2275518-.2554138.2275518l-2.7763275 10.6553598s-.2235736.3915021-.4789874.3915021-.3509344-.1307363-.415307-.3915021l-3.6380895-13.52237096s-.1273608-.58654653-.3827746-.8473124-.5108277-.48902434-.7344013-.52153173c-.2235736-.0325074-.3827746-.19575108-.3827746-.35828807 0-.16324367.1273608-.26076586.446455-.26076586h4.532384s.4789874-.0812685.3827746.35828806c-.0588352.27207279-.2394937.27701956-.4305349.27701956-.3190943 0-.8776822-.04876109-1.1012558.24451217-.2235736.29327327-.3190942.61905393-.2554138 1.10807827.0636804.48831765.0955206.78159092.0955206.78159092l2.3624047 8.60244684c.0318402.2282585.1910413.3915022.2872541.0325074l2.8400078-10.85040409s.128053-.65226801.415307-.65226801.4464551.26076587.5745081.88052648l2.7763274 10.23135022c.128053.358288.3834668.6515613.574508-.0650148l2.1388312-8.11412925c.0955206-.56958615.0636804-1.20560046-.0962128-1.59639592-.1592011-.39079546-.4782953-.54414557-.7973895-.55403913-.5267477-.0162537-.9102146-.08126849-.9102146-.29327326 0-.20847136.0325324-.35828807.3357065-.35828807h3.3508355c.287254 0 .574508.26076587.4471472.42330286-.128053.16324368-.427074.24097876-.7344012.55403914-.287254.29327326-.4623752.6847754-.6381885 1.20560045"/><path d="m46.8463342 16.7089231c-1.0989417 1.8798747-2.9719025 1.4949643-4.7627704 1.706665-.6864074.0811062-1.0037415 1.0949325-.2980181 1.4654087 1.5535572.8151852 3.1133231.0522379 4.7006833.2701246 1.0209879.13953 2.0875063.4062179 2.3765563 1.5252073.1255539.4880113.1531481 1.0399453-.0137972 1.4901529-.9388949 2.5328476-3.6424432 4.248448-6.4191163 3.7460025-.6553638-.1182224-1.3348726-.2117007-1.9102131-.6364767-.9368253-.689402-1.6446183-1.5190212-1.5011281-2.7039952.0600175-.4969468.4518561-.8316813.8643904-1.1286122.4980765-.3581041 1.1003214-.4460836 1.5142354-.9045393-.9492428-.4577684-1.6804908-1.3217547-1.4811223-2.3988163.1772932-.9602138 1.545279-.8969786 1.5914994-1.2647054.0607074-.4866367-1.1596491-.8681103-1.4928499-1.9190531-.2242034-.7052107-.2352411-1.4193569-.1027886-2.1424385.38494-2.097074 2.440023-3.172761 4.3902478-2.7060572 1.5652848.3752876 2.8532472-.1539641 4.4716509-.066672.0986495.0048114.2366209.1532768.2255832.2240728-.0489799.2983056-.235931.5127556-.3739023.6770299-.1027887.1202844-1.5866704-.1512148-2.0316279-.0171835-.5236012.1580881.4194328.9602138.5849984 1.4832795.3594154 1.1313615.2614557 2.2840305-.3325109 3.3006062zm-2.5441914-5.0127699c-.8305874-.3986572-1.9895466-.1450288-2.3227474.7457638-.582239 1.5540755-.582239 3.2655519.4870388 4.6512292.7864366 1.0200124 2.5041797.7450764 2.969833-.5106936.3180239-.8584876.2559368-1.603564.0903712-2.5541551-.1552177-.8907925-.3766617-1.9259264-1.2244956-2.3321443zm-3.6003619 11.7686339c-.3856299.9897695.3545863 2.1623714 1.3514292 2.5953955 2.1433847.9299709 4.8779765-.5546833 5.5243722-2.7617317.2787021-.9519658-.707793-1.4722821-1.5011281-1.4819049-1.848126-.0240569-4.5323583-.5120682-5.3746733 1.6482411z"/><path d="m13.7189573 20.6104009v-11.11542327c0-.56844124-.1629418-1.16838645-.3917688-1.38959913-.228827-.22121267-.686481-.39516939-.9471879-.41092137-.5228307-.03150398-.4902423-.66295316 0-.66295316.4902424 0 2.5149716-.03150397 2.5149716-.03150397.2614153.03150397.5228307.28422062.7190693.75814994l5.3572437 10.79969866c.0977651.2527166.4569455.2212127.5880074-.031504l5.1610051-11.08460412c.1636502-.28353575.2614153-.41023651.457654-.41023651h2.8748604c.3917688 0 .3591805.66295316.0325884.66295316-.3273005 0-.6213043 0-.7842461 0-.1636502 0-.4250656.03150397-.5880074.28422062-.1636503.25271664-.3917688.53693726-.3917688.97936261v10.92639944s.0977651.8211579.3591804 1.1053785c.2614154.2842206.6857725.4102365 1.044953.4102365.3598889 0 .7516577-.031504.8494228.0951968.0984735.1260159.4250656.4417405.4250656.4417405h-6.4354934s-.1962387-.3157246.0325883-.4109214c.228827-.0945119 1.0130731-.0945119 1.2086033-.1575199.1962386-.0630079.6857725-.4424253.7516577-.9786777.0651767-.5369373.097765-.7896539.097765-.7896539v-8.6526345s-.0325883-.5999452-.2614153-.5999452-.3917688.2527166-.4902424.5047484c-.097765.2527167-4.932178 10.7688796-4.932178 10.7688796s-.1962386.3787325-.3591805.3787325c-.1636502 0-.3598888-.1575199-.4576539-.3787325-.0977651-.2212127-5.2261818-10.9263995-5.2261818-10.9263995-.1636503-.3157245-.457654-.4109213-.457654-.0315039v8.8416583s.0325884.663638.1636503 1.0738745c.1303534.4109214.4569455.663638.6857725.7581499.228827.094512.8494228.1890239 1.0123646.1890239.1636503 0 .228827.4424253 0 .4424253-.2281185 0-4.0501669 0-4.0501669 0-.1962386 0-.1962386-.4424253 0-.4424253.1955302 0 .6531842-.1260159.9145996-.2520318.2614153-.1267008.4895339-.3157246.5221222-.663638"/><path d="m149 64.4965581c0-1.3721891 1.11825-2.4965581 2.503442-2.4965581 1.372954 0 2.496558 1.124369 2.496558 2.4965581 0 1.3790729-1.123604 2.5034419-2.496558 2.5034419-1.385192 0-2.503442-1.124369-2.503442-2.5034419zm4.529601 0c0-1.1236041-.90179-2.0261588-2.026159-2.0261588-1.130488 0-2.032278.9025547-2.032278 2.0261588 0 1.1312528.90179 2.0330426 2.032278 2.0330426 1.124369 0 2.026159-.9017898 2.026159-2.0330426zm-.783999 1.359951h-.614196l-.601958-1.1373719h-.529295v1.1373719h-.529295v-2.6931314h1.307175c.228698 0 .529295.0068839.731987.1246749.241701.1567998.313599.4176228.313599.6990975 0 .496405-.254704.6990974-.731987.7319871zm-.954566-1.5427566c.300596.0068839.510173-.0650145.510173-.4053847 0-.3594922-.385498-.3594922-.647086-.3594922h-.65397v.7648769z"/></g></g></svg>