<svg height="171" viewBox="0 0 343 171" width="343" xmlns="http://www.w3.org/2000/svg"><g fill="none" fill-rule="evenodd" transform="translate(-2)"><path d="m2.09453333 170.894912h342.34426667v-170.31926598h-342.34426667z" fill="#d8232a"/><g fill="#fff"><path d="m317.251267 130.241442v-65.5363801h-142.6552v78.7563361h142.6552v-13.642504h2.517733v16.243628h-147.690667v-83.8192654h147.690667v67.9981854z"/><path d="m158.877867 73.0733628h26.013c3.356466 0 8.315266 1.0471859 11.328266 4.0785133 2.238667 2.249 3.497534 3.7968142 4.4758 6.1866637.9798 2.3913806 10.365334 23.7683632 10.365334 23.7683632.559666 1.125265.978266.843566 1.3984 0 .420133-.843567 11.1734-28.8297614 11.1734-28.8297614 1.119333-2.3913805 4.334733-5.767177 7.2726-5.767177 2.936333 0 6.3618 1.3809381 8.391933 6.8909115.6992 1.8999381 10.7686 28.6904429 10.7686 28.6904429.559667 1.405433 1.258867 1.405433 1.818533-.14085.559667-1.546283 10.348467-27.8453451 10.348467-27.8453451 1.399933-3.3757965 5.313-6.4101858 8.812067-6.3290443 3.006866.0704248 8.531466 1.6871328 11.0492 7.7344779 2.315333 5.5650885 16.3622 40.7851325 16.3622 40.7851325 1.539466 3.515115 3.7766 5.624797 8.9516 5.624797h21.8178v2.812398h-33.006534c-5.314533 0-8.4548-.182186-12.027466-2.530699-3.637067-2.391381-5.8742-3.937664-7.2726-8.016177l-10.210467-27.5651771s-.4186-1.5462832-1.3984-1.5462832c-.978267 0-1.119333.4210177-1.3984 1.266115-.279067.8435664-11.188733 29.9550263-12.308067 32.7674243-1.1178 2.812399-2.490133 7.184859-6.340333 7.172611-5.035467-.016841-7.629867-2.250531-8.888733-5.626327-1.258867-3.374266-11.079867-29.2523101-11.498467-30.3760446-.420133-1.1252655-1.818533-2.2505309-2.517733-.2816991-.6992 1.9688319-11.033867 29.6733277-11.8726 31.7830087-.838734 2.109682-3.216934 4.501062-6.294334 4.501062-3.075866 0-4.7242-1.266115-5.983066-4.360212-1.258867-3.094098-15.834734-40.783602-17.0936-44.3002481-1.258867-3.515115-3.5374-5.7503362-5.033934-6.5387876-1.468933-.7746725-2.937866-1.3365398-6.993533-1.3365398s-10.208933 0-10.208933 0z"/><path d="m172.075267 130.241442v-65.5363801h-142.6552003v78.7563361h142.6552003v-13.642504h2.517733v16.243628h-147.6906667v-83.8192654h147.6906667v67.9981854z"/><path d="m14.3627333 73.0733628h29.2360667c3.3564667 0 8.3152667 1.0471859 11.3282667 4.0785133 2.2386666 2.249 3.4975333 3.7968142 4.4758 6.1866637.9798 2.3913806 8.8902666 26.7154872 8.8902666 26.7154872.5581334 1.123734 1.863.843566 2.2831334 0 .4201333-.845098 12.6484666-31.7768854 12.6484666-31.7768854 1.1193334-2.3913805 3.45-5.767177 6.3878667-5.767177 2.9363333 0 6.3618 1.3809381 8.3919333 6.8909115.6992 1.8999381 10.7685997 28.6904429 10.7685997 28.6904429 1.041134 2.68992 1.9274 2.542946 2.9992-.14085.610267-1.527911 10.6444-27.8453451 10.6444-27.8453451 1.3984-3.3757965 5.017067-6.4101858 8.516134-6.3290443 3.006866.0704248 7.3508 1.6871328 9.868533 7.7344779 2.316867 5.5650885 16.3622 40.7851325 16.3622 40.7851325 1.539467 3.515115 3.7766 5.624797 8.9516 5.624797h21.8178v2.812398h-33.006533c-5.314534 0-8.4548-.182186-12.027467-2.530699-3.637067-2.391381-5.8742-3.937664-7.2726-8.016177l-10.210467-27.5651771s-.4186-1.5462832-1.3984-1.5462832c-.978266 0-1.1178.4210177-1.3984 1.266115-.279066.8435664-11.188733 29.9550263-12.306533 32.7674243-1.119333 2.812399-3.0774 7.172611-8.112867 7.172611-5.0354663 0-6.1532663-2.250531-7.412133-5.626327-1.2588667-3.374266-10.7839333-29.2523101-11.2040667-30.3760446-.4201333-1.1252655-2.4088666-2.2505309-3.1080666-.2816991-.6992 1.9688319-11.0338667 29.6733277-11.8726 31.7830087-.8387334 2.109682-2.6266 4.501062-5.704 4.501062-3.0758667 0-5.3145334-1.266115-6.5734-4.360212-1.2573334-3.094098-15.2444-40.783602-16.5032667-44.3002481-1.2573333-3.515115-3.5374-5.7503362-5.0339333-6.5387876-1.4689334-.7746725-2.9378667-1.3365398-6.9935334-1.3365398-4.0556666 0-13.432 0-13.432 0z"/><path d="m213.762 47.056c-1.633-.2985398-2.505467-.3153805-2.505467-2.7634071 0-4.5469911-.012266-18.2721681-.012266-18.2721681 0-1.4620797-.5244-.9752301-6.377134.7685487-.608733.1821858-.6026.9844159-.075133 1.1068938 2.438.5633982 2.687933.5633982 2.694067 1.3564424.0184 2.9379381-.006134 11.9186284-.0092 15.8272036-.001534 1.7728672-.874 1.4942301-2.6818 2.0821239-.4186.1362566-.495267 1.0150354.1334 1.0150354h8.939333l1.760267-.0658319-.9246-.9844159z"/><path d="m132.003133 25.7326018c0-1.4636106-.4554-1.1849735-6.5872.6292301-.608733.1791239-.604133.9905398-.075133 1.1053628 2.266267.4945044 2.583667.3551858 2.5898 1.1482301.0184 2.879761.021467 12.8632389-.044467 16.0369469-.0368 1.7713363-.874 1.4942301-2.6818 2.0821239-.417066.1362566-.2852 1.0839292.343467 1.0839292 3.975933-.0704248 7.255733-.1393186 11.374267-.0643009.389466.0076549.627133-.632292.295933-.8359115-1.9044-1.1650708-5.411133-.2143363-5.411133-3.054292 0-4.5454602.0092-8.1692744.0414-9.6589116.049066-2.2015398.955266-3.456938 3.565-5.9064955 1.165333-1.094646 3.085066.9966637 3.9514.6675044 1.022733-.3903982 2.402733-2.1678584 1.445933-3.2242301-2.950133-3.2594425-5.424933.4776637-8.3858 3.3727345-.182467.1775929-.424733-.3903982-.4186-.5986106.030667-1.1114867-.003067-1.4819823-.003067-2.7833097"/><path d="m221.355067 28.6996283c-.0092-1.1114867-.003067-1.4819823-.003067-2.7833097 0-1.4636106-.594933-.9752301-6.447667.7685487-.608733.1806548-.6026.9828849-.075133 1.1053628 2.438.5633982 2.7232.5633982 2.729333 1.3564425.019934 2.937938.023 12.5953186-.044466 15.8287345-.0368 1.7728672-.874 1.4926991-2.6818 2.0821239-.4186.1362566-.424734 1.0839292.2024 1.0839292 3.977466-.174531 4.675133-.1393186 8.793666-.0643009.389467.0076549.627134-.632292.295934-.8359115-1.9044-1.1650708-2.830534-.2143363-2.830534-3.054292 0-4.5454602.010734-8.1692744.042934-9.6604425.052133-2.3898496.5198-4.383177 3.563466-5.9049646 2.066934-1.0334071 3.5742-1.1466991 5.2072-.1286018 1.395334.8711239 1.395334 2.2306283 1.395334 3.6238142v12.8188407c0 .6965929-.348067 1.3931858-1.534867 1.7422478-1.1868.3490619-1.6744.5572743-1.6744.8359115 0 .2786371.279067.5572743.766667.6276991.489133.0688938 2.303066-.0704248 3.6294-.0704248 1.3248 0 3.977466.0704248 4.396066.0704248s.627134-.1393186.627134-.5572744c0-.4179557-.627134-.6965929-1.395334-1.0456548-.7682-.349062-1.326333-.6276991-1.326333-1.671823v-13.3776461c0-2.4373097-.558133-4.3893008-2.372067-5.5727433-1.813933-1.1849735-3.140266-1.2553982-5.058466-.5235929-1.197534.4562301-4.2274 2.4847699-5.268534 3.2395398-.383333.2801681-.9338.6552566-.936866.0673628"/><path d="m147.2276 25.9561239c2.913333-1.1742566 7.9902 1.1681327 8.004 4.8593097.007667 2.0239469-.003067 9.057239-.003067 10.8025487 0 3.000708-4.964933 5.4318938-7.659 3.5840089-3.250666-2.2321593-4.702733-6.0243806-4.704266-9.7140266 0-3.6023805.581133-8.0069911 4.362333-9.5318407zm11.699333-14.9254602c0-1.4636106-1.116266-.6965929-6.447666.6981239-.613334.1607522-.743667.9905398-.214667 1.1053628 2.266267.4945045 2.919467.3551859 2.937867 1.1482301.015333.6001416-.001534 10.034-.001534 10.5912744 0 .8435663-.621.7532389-.780466.6950619-3.7858-1.3702212-7.855267-1.6289557-11.1918 1.2446814-5.089134 4.383177-5.182667 11.8007434-1.8814 17.2096726 1.7434 2.8567965 4.854533 5.0828319 8.2524 4.1076018 1.712733-.4914425 3.315066-1.3028584 4.905133-2.3454514.734467-.4807256.746733.6231062.7452 1.5294425 0 1.4636106.944533.9400177 6.2744-.7333363.604133-.1898407.7452-1.0073805.213133-1.1053628-2.298466-.4256106-2.818266-.3260973-2.822866-1.1191416v-33.0261593z"/><path d="m279.1004 37.5869292c-.116533 5.4579204-3.759733 10.8561327-9.509733 11.1439558-4.1446.2082123-8.549867-1.4283983-10.274867-5.3155399-1.777133-4.0065575-1.8492-8.4402566-.240733-12.4804955 1.905933-4.788885 7.6774-6.981239 12.577933-5.5099735 2.2356.6720974 4.104733 1.7820531 5.385067 3.8549912 1.565533 2.533761 2.1252 5.3553451 2.062333 8.3070619zm-4.555533-5.0078142c-.5658-3.8917345-3.933-7.2093539-7.869067-5.6079557-2.457933 1.0012566-3.609467 3.2058584-4.109333 5.6462301-1.010467 4.9312655-.7912 11.4486194 3.442333 14.0880177 2.411933 1.5049469 5.8144.286292 6.8908-1.6213009 2.261667-4.0096195 2.273933-8.1953009 1.645267-12.5049912z"/><path d="m207.104267 16.8253982c0 1.2232478.9936 2.2153186 2.220266 2.2153186 1.225134 0 2.220267-.9920708 2.220267-2.2153186 0-1.2247787-.995133-2.2183805-2.220267-2.2183805-1.226666 0-2.220266.9936018-2.220266 2.2183805"/><path d="m69.3097333 16.1716726c0 1.2232478.9951334 2.2168495 2.2202667 2.2168495 1.2266667 0 2.2218-.9936017 2.2218-2.2168495 0-1.2247788-.9951333-2.2168496-2.2218-2.2168496-1.2251333 0-2.2202667.9920708-2.2202667 2.2168496"/><path d="m121.533533 35.5446106c.019934 6.6260531-.021466 7.3532655.069 8.0774159.231534 1.8295133 1.9964 1.2890797 3.598734.9109293.161-.0367434.407866.28323.233066.4684778-1.298733 1.3824691-2.510066 3.3650797-4.7012 2.7649381-1.833866-.5021593-1.9044-2.8047434-2.726266-2.8430177-.995134-.0459292-.506.3873363-2.611267 1.7652124-.950667.6215752-2.200333 1.2002832-3.351867 1.3732832-2.484.3750885-5.3452-.2373009-6.2008-2.5536638-2.549933-6.9016283 6.8356-8.5688584 11.378867-10.2437433.1656-.0428673.636333-.4194867.628667-.8971505-.070534-4.3357168.4186-6.3596637-1.212867-7.3609203-1.721933-1.0563717-4.5172-.9522655-5.578267.5312478-.8464 1.1803805-.755933 3.6100354-1.245066 4.0203363-.421667.3536548-3.9146 1.1941592-4.003534.8573451-.139533-.5235929.719134-5.3844336 6.548867-7.3991947 2.2724-.7838584 4.8438-1.1849735 6.916867.2158673 2.766133 1.8677876 2.2448 6.3336371 2.257066 10.3126371zm-3.586466 4.4612567c0-2.5092655-.0368-2.8644514-.343467-2.826177-3.6662.4562301-6.4354 1.613646-7.9442 4.2943805-.8234 1.4651416.245333 3.4446903 1.326333 3.9897168 2.275467 1.1482301 6.961334-1.2446814 6.961334-5.4579203z"/><path d="m86.0782667 46.4038053c-1.6314667-.3000708-2.5039334-.3169115-2.5039334-2.764938 0-4.5469912-.0613333-8.0988496-.0291333-9.5900177l.0168667-23.012062c0-1.46207964-.5259334-.9752301-6.3786667.7685487-.6072.1821858-.6010667.9844159-.0736 1.1053628 2.438.5649292 2.7232.5649292 2.7278 1.3579735.0199333 2.937938.0291333 26.4475663.0276 30.0162655-.0015333 1.7728672-.9460667 1.6350796-2.7523333 2.2245044l-1.2159334-.1056372c-1.6314666-.3000708-2.5039333-.3169115-2.5039333-2.764938 0-4.5469912-.0613333-8.0988496-.0276-9.5900177l.0153333-8.6806195c0-1.4636106-.5259333-.9767611-6.3786666.7685487-.6072.1806548-.6010667.9828849-.0736 1.1053628 2.438.5633982 2.7232.5633982 2.7278 1.3564425.0199333 2.937938.0291333 12.1176548.0276 15.686354-.0015334 1.7728672-.9445334 1.6350796-2.7523334 2.2245044-.4186.1362566-.4952666 1.0135044.1318667 1.0135044h8.9393333 1.242 8.9393334c.3281333-.0995133.3802666-.9400177-.1058-1.1191416"/><path d="m244.8994 26.5516726c2.913333-1.1742567 7.988667 1.1681327 8.002467 4.8593097.0092 2.0224159-.001534 9.0572389-.001534 10.8025487 0 3.0007079-4.966466 5.4318938-7.659 3.5840088-3.2522-2.2321593-4.704266-6.0259115-4.704266-9.7140265-.001534-3.6023806.5796-8.0069912 4.362333-9.5318407zm11.699333-14.9269912c0-1.4620796-1.116266-.6965929-6.4492.6996549-.613333.1607522-.742133.9905398-.213133 1.1053628 2.266267.4945044 2.919467.3551859 2.937867 1.1482301.0138.6001416-.001534 10.034-.001534 10.5912743 0 .8435664-.622533.753239-.780466.695062-3.7858-1.3702213-7.8568-1.6289558-11.1918 1.2446814-5.089134 4.383177-5.182667 11.7992124-1.8814 17.2096726 1.7434 2.8567964 4.854533 5.0828318 8.250866 4.1076017 1.712734-.4914424 3.3166-1.3043893 4.906667-2.3454513.734467-.4822566.746733.6231062.7452 1.5294425 0 1.4636106.943.9400177 6.272867-.7333363.605666-.1898407.746733-1.0073805.214666-1.1068938-2.298466-.4240796-2.818266-.3245664-2.822866-1.1176106v-33.0276903z"/><path d="m316.3742 28.1591947c2.214133 1.152823 2.146667 2.2046018 3.143333 3.4156018.2484.3016017.812667-.0428673.811134-.2219912-.042934-4.0188053.4508-4.6541593-.7314-5.1042655-3.9008-1.4850442-9.0114-2.247469-11.958467 1.7789912-2.376667 3.2456637-1.220533 7.437469 2.168133 9.5639911 3.082 1.9336195 7.381467 2.2061328 8.677134 5.9447699.575 1.6580443-.835667 3.1691151-2.461 3.5472655-2.701734.6292301-5.029334-.4761327-7.358467-1.846354-1.403-.8236637-1.206733-3.2640354-2.232533-3.2793451-.640934-.0107168-.2162 1.2599912-.035267 5.5007876.023.5113452.130333.6032036.688467.7547699 3.1602.8634691 6.837133 1.3579735 9.499.3046637 2.8152-1.1145486 5.388133-3.6697433 4.7334-6.975115-.383334-1.9320885-1.242-3.4554071-2.997667-4.5592389-3.419333-2.1479558-8.907133-2.596531-9.295067-6.8097699-.334266-3.6161593 4.6736-3.406416 7.349267-2.0147611"/><path d="m285.357933 25.4279381h-8.0592s-.778933-.0704248-.706866.3536548c.070533.4240797.466133.6720974.918466.9890089.352667.2464867.636334.5986106.989 1.6932566.207.6384159 5.728534 18.7069646 5.8696 19.2718938.141067.5649292.352667.9890089.989.9890089.706867 0 1.202134-.1408496 1.413734-.8481593.213133-.7057788 4.454333-14.6820354 4.596933-15.1765399.141067-.4945044.493733-.4945044.7774.2816992.282133.7762035 4.454333 14.8244159 4.665933 15.2484955.2116.4240797.424734.635354.918467.7057788.495267.0704248.778933-.1408496.990533-.635354s4.419067-14.3299115 6.0812-19.7663982c.194734-.6399469.794267-1.3671593 1.378467-1.6580443.564267-.2832301.812667-.577177.812667-.7409911 0-.3536549-.213134-.5649292-.706867-.5649292-.495267 0-5.090667 0-5.090667 0-.424733 0-1.096333 0-1.061066.3521239.056733.5618672.596466.5633982.92.7057787.953733.4240797 1.590066.8833717 1.8032 1.3778761.2116.4929735.246866 1.0931151.033733 2.0116992-.2116.9170531-3.322733 11.2939911-3.4638 11.7180708-.141067.4240796-.636333.3521239-.847933-.2832301-.213134-.635354-4.5954-15.3173894-4.738-15.8118938-.141067-.4945045-.4232-.7057788-.918467-.7057788s-.7774.4929735-1.1316 1.6932566c-.352667 1.2002832-4.100133 13.6256638-4.311733 14.2610177-.213134.635354-.92 1.1987523-1.2742.2112744-.352667-.9890089-3.322734-10.5882124-3.534334-11.2955221-.1978-.6552567-.601066-1.906062-.141066-2.4709912.420133-.5159381.953733-.6705664 2.545333-.9170531.874-.1362566 1.909-.9170531.282133-.9890088"/><path d="m203.626667 18.9335487-7.565467 27.9555752s-.352667 1.5524071-1.130067 1.5524071c-.778933 0-1.202133-1.1283275-1.202133-1.1283275l-6.2928-22.7318938s-.1426-.4225486-.495267-.4225486c-.3542 0-.5658.4929734-.5658.4929734l-6.1502 23.0840177s-.495266.8481593-1.061066.8481593-.7774-.2832301-.92-.8481593l-8.0592-29.295177s-.282134-1.2707079-.847934-1.8356371c-.5658-.5649293-1.1316-1.0594337-1.626866-1.1298585-.495267-.0704247-.847934-.4240796-.847934-.7762035 0-.3536549.282134-.5649292.989-.5649292h10.040267s1.061067-.1760619.847933.7762035c-.130333.5894248-.530533.6001416-.953733.6001416-.706867 0-1.944267-.1056371-2.439533.5297168-.495267.635354-.706867 1.3411328-.5658 2.4005664.141066 1.0579027.2116 1.6932567.2116 1.6932567l5.233266 18.6365398c.070534.4945044.4232.8481593.636334.0704248l6.291266-23.5065664s.283667-1.4130885.92-1.4130885c.636334 0 .989.5649292 1.272667 1.9075929l6.1502 22.1654336c.283667.7762036.849467 1.4115576 1.272667-.1408495l4.738-17.5786372c.2116-1.2339646.141066-2.6118407-.213134-3.458469-.352666-.8466283-1.059533-1.1788496-1.7664-1.2002832-1.166866-.0352124-2.016333-.1760619-2.016333-.635354 0-.4516371.072067-.7762035.743667-.7762035h7.422866c.636334 0 1.272667.5649292.990534.9170531-.283667.3536548-.946067.5220619-1.626867 1.2002832-.636333.6353539-1.024267 1.4835132-1.413733 2.6118407"/><path d="m101.522 36.9469823c-2.4426 4.1872124-6.6056 3.3298673-10.5861333 3.8014071-1.5256667.1806548-2.231 2.4388407-.6624 3.2640354 3.4530666 1.8157345 6.9199333.116354 10.4481333.6016725 2.269333.3107877 4.639867.9048054 5.282333 3.3972301.279067 1.0869912.3404 2.3163629-.030666 3.3191505-2.086867 5.6416371-8.0960003 9.4629469-14.267667 8.3438053-1.4566667-.2633274-2.967-.4715398-4.2458-1.4176814-2.0822667-1.5355664-3.6554667-3.3834514-3.3365333-6.0228496.1334-1.1068938 1.0043333-1.8524779 1.9212666-2.5138584 1.1070667-.7976372 2.4456667-.9936018 3.3656667-2.0147611-2.1098667-1.0196283-3.7352-2.9440619-3.2920667-5.3430973.3940667-2.1387699 3.4346667-1.9979204 3.5374-2.8169912.1349334-1.0839292-2.5775333-1.9336194-3.3181333-4.2744778-.4983333-1.5707788-.5228667-3.1614602-.2284667-4.7720443.8556-4.671 5.4234-7.0669734 9.7581334-6.0274425 3.4791333.8359116 6.3418663-.342938 9.9390663-.1485044.219267.0107168.525934.3414071.5014.4990974-.108866.6644424-.5244 1.1421062-.831066 1.5080088-.228467.2679204-3.526667-.3368141-4.515667-.0382743-1.1638.3521239.932267 2.1387699 1.300267 3.3038407.798866 2.5199823.581133 5.0874248-.739067 7.3517345zm-5.6549333-11.1653894c-1.8461334-.8879646-4.4221334-.3230354-5.1627334 1.6611062-1.2941333 3.461531-1.2941333 7.2736549 1.0825334 10.3600974 1.748 2.2719646 5.566 1.6595752 6.601-1.1375133.7068666-1.9121859.5688666-3.5717611.2008666-5.6890974-.345-1.9841416-.8372-4.2897876-2.7216666-5.1945929zm-8.0024667 26.2133275c-.8571333 2.2046017.7881333 4.8164424 3.0038 5.7809557 4.7640667 2.0714071 10.8422-1.2354956 12.278933-6.1514513.619467-2.1203983-1.5732-3.2793452-3.336533-3.3007788-4.1078-.0535841-10.074-1.1405752-11.9462 3.6712744z"/><path d="m30.1622 44.5283628v-24.8476991c0-1.2707079-.3526667-2.6118407-.8479333-3.1063451-.4952667-.4945044-1.4858-.8833717-2.0500667-.9185841-1.1316-.0704248-1.0610667-1.4819823 0-1.4819823s5.4433333-.0704248 5.4433333-.0704248c.5658.0704248 1.1316.635354 1.5563334 1.6947876l11.5950666 24.1419204c.2116.5649292.989.4945044 1.2726667-.0704248l11.1703333-24.7788053c.3542-.633823.5658-.9170531.9905334-.9170531h6.2222666c.8479334 0 .7774 1.4819823.0705334 1.4819823-.7084 0-1.3447334 0-1.6974 0-.3542 0-.92.0704248-1.2726667.635354-.3542.5649292-.8479333 1.2002832-.8479333 2.189292v24.4251505s.2116 1.8356371.7774 2.4709911 1.4842666.9170531 2.2616666.9170531c.7789334 0 1.6268667-.0704248 1.8384667.2128053.2131333.2816991.92.9874779.92.9874779h-13.9288s-.4247333-.7057788.0705333-.9185841c.4952667-.2112743 2.1926667-.2112743 2.6158667-.3521239.4247333-.1408495 1.4842667-.9890088 1.6268667-2.187761.1410666-1.2002832.2116-1.7652124.2116-1.7652124v-19.3423186s-.0705334-1.3411327-.5658-1.3411327c-.4952667 0-.8479334.5649292-1.0610667 1.1283274-.2116.5649292-10.6750667 24.0730265-10.6750667 24.0730265s-.4247333.8466284-.7774.8466284c-.3542 0-.7789333-.3521239-.9905333-.8466284-.2116-.4945044-11.3114-24.4251504-11.3114-24.4251504-.3542-.7057788-.9905333-.9185841-.9905333-.0704248v19.7648673s.0705333 1.4835133.3542 2.4005664c.2821333.918584.989 1.4835132 1.4842666 1.6947876.4952667.2112743 1.8384667.4225486 2.1911334.4225486.3542 0 .4952666.9890089 0 .9890089-.4937334 0-8.7660667 0-8.7660667 0-.4247333 0-.4247333-.9890089 0-.9890089.4232 0 1.4137333-.2816991 1.9795333-.5633982.5658-.2832301 1.0595334-.7057788 1.1300667-1.4835133"/><path d="m323.2834 141.908991c0-2.746566 2.241733-4.997097 5.0186-4.997097 2.752333 0 5.0048 2.250531 5.0048 4.997097 0 2.760345-2.252467 5.010876-5.0048 5.010876-2.776867 0-5.0186-2.250531-5.0186-5.010876zm9.0804 0c0-2.249-1.8078-4.055549-4.0618-4.055549-2.266267 0-4.074067 1.806549-4.074067 4.055549 0 2.26431 1.8078 4.069328 4.074067 4.069328 2.254 0 4.0618-1.805018 4.0618-4.069328zm-1.571667 2.722071h-1.231266l-1.206734-2.276558h-1.061066v2.276558h-1.061067v-5.390558h2.620467c.458466 0 1.061066.013779 1.4674.249549.484533.31385.628666.835912.628666 1.39931 0 .993602-.5106 1.39931-1.4674 1.465141zm-1.9136-3.087974c.6026.013779 1.022734-.130132 1.022734-.811415 0-.719558-.7728-.719558-1.2972-.719558h-1.311v1.530973z"/></g></g></svg>